<svg width="113" height="75" viewBox="0 0 113 75" fill="none" xmlns="http://www.w3.org/2000/svg">
<path d="M4.09961 71.4335C10.0964 61.431 23.2393 54.5853 43.7441 54.5853C64.2489 54.5853 77.3919 61.431 83.3886 71.4335M87.1822 47.0006C98.0409 52.4299 103.47 57.8592 108.9 68.7179M75.8888 5.50105C80.9982 8.24961 84.4715 13.6466 84.4715 19.8549C84.4715 25.8837 81.196 31.1476 76.3275 33.9639M60.0322 19.8547C60.0322 28.8503 52.7398 36.1427 43.7441 36.1427C34.7485 36.1427 27.4561 28.8503 27.4561 19.8547C27.4561 10.8591 34.7485 3.56665 43.7441 3.56665C52.7398 3.56665 60.0322 10.8591 60.0322 19.8547Z" stroke="#8F0101" stroke-width="7" stroke-linecap="round"/>
</svg>
