<svg width="50" height="50" viewBox="0 0 50 50" fill="none" xmlns="http://www.w3.org/2000/svg">
<path d="M0 41.6667V35.8855C0 34.7049 0.295139 33.6112 0.885417 32.6042C1.47569 31.5973 2.29167 30.8334 3.33333 30.3125C3.81944 30.0695 4.28819 29.8438 4.73958 29.6355C5.22569 29.4271 5.72917 29.2362 6.25 29.0625V41.6667H0ZM8.33333 27.0834C6.59722 27.0834 5.12153 26.4757 3.90625 25.2605C2.69097 24.0452 2.08333 22.5695 2.08333 20.8334C2.08333 19.0973 2.69097 17.6216 3.90625 16.4063C5.12153 15.191 6.59722 14.5834 8.33333 14.5834C10.0694 14.5834 11.5451 15.191 12.7604 16.4063C13.9757 17.6216 14.5833 19.0973 14.5833 20.8334C14.5833 22.5695 13.9757 24.0452 12.7604 25.2605C11.5451 26.4757 10.0694 27.0834 8.33333 27.0834ZM8.33333 22.9167C8.92361 22.9167 9.40972 22.7257 9.79167 22.3438C10.2083 21.9271 10.4167 21.4237 10.4167 20.8334C10.4167 20.2431 10.2083 19.757 9.79167 19.375C9.40972 18.9584 8.92361 18.75 8.33333 18.75C7.74306 18.75 7.23958 18.9584 6.82292 19.375C6.44097 19.757 6.25 20.2431 6.25 20.8334C6.25 21.4237 6.44097 21.9271 6.82292 22.3438C7.23958 22.7257 7.74306 22.9167 8.33333 22.9167ZM8.33333 41.6667V35.8334C8.33333 34.6528 8.62847 33.5764 9.21875 32.6042C9.84375 31.5973 10.6597 30.8334 11.6667 30.3125C13.8194 29.2362 16.0069 28.4375 18.2292 27.9167C20.4514 27.3612 22.7083 27.0834 25 27.0834C27.2917 27.0834 29.5486 27.3612 31.7708 27.9167C33.9931 28.4375 36.1806 29.2362 38.3333 30.3125C39.3403 30.8334 40.1389 31.5973 40.7292 32.6042C41.3542 33.5764 41.6667 34.6528 41.6667 35.8334V41.6667H8.33333ZM12.5 37.5H37.5V35.8334C37.5 35.4514 37.3958 35.1042 37.1875 34.7917C37.0139 34.4792 36.7708 34.2362 36.4583 34.0625C34.5833 33.125 32.691 32.4306 30.7812 31.9792C28.8715 31.4931 26.9444 31.25 25 31.25C23.0556 31.25 21.1285 31.4931 19.2188 31.9792C17.309 32.4306 15.4167 33.125 13.5417 34.0625C13.2292 34.2362 12.9687 34.4792 12.7604 34.7917C12.5868 35.1042 12.5 35.4514 12.5 35.8334V37.5ZM25 25C22.7083 25 20.7465 24.1841 19.1146 22.5521C17.4826 20.9202 16.6667 18.9584 16.6667 16.6667C16.6667 14.375 17.4826 12.4132 19.1146 10.7813C20.7465 9.14935 22.7083 8.33337 25 8.33337C27.2917 8.33337 29.2535 9.14935 30.8854 10.7813C32.5174 12.4132 33.3333 14.375 33.3333 16.6667C33.3333 18.9584 32.5174 20.9202 30.8854 22.5521C29.2535 24.1841 27.2917 25 25 25ZM25 20.8334C26.1458 20.8334 27.1181 20.4341 27.9167 19.6355C28.75 18.8021 29.1667 17.8125 29.1667 16.6667C29.1667 15.5209 28.75 14.5487 27.9167 13.75C27.1181 12.9167 26.1458 12.5 25 12.5C23.8542 12.5 22.8646 12.9167 22.0312 13.75C21.2326 14.5487 20.8333 15.5209 20.8333 16.6667C20.8333 17.8125 21.2326 18.8021 22.0312 19.6355C22.8646 20.4341 23.8542 20.8334 25 20.8334ZM41.6667 27.0834C39.9306 27.0834 38.4549 26.4757 37.2396 25.2605C36.0243 24.0452 35.4167 22.5695 35.4167 20.8334C35.4167 19.0973 36.0243 17.6216 37.2396 16.4063C38.4549 15.191 39.9306 14.5834 41.6667 14.5834C43.4028 14.5834 44.8785 15.191 46.0938 16.4063C47.309 17.6216 47.9167 19.0973 47.9167 20.8334C47.9167 22.5695 47.309 24.0452 46.0938 25.2605C44.8785 26.4757 43.4028 27.0834 41.6667 27.0834ZM41.6667 22.9167C42.2569 22.9167 42.7431 22.7257 43.125 22.3438C43.5417 21.9271 43.75 21.4237 43.75 20.8334C43.75 20.2431 43.5417 19.757 43.125 19.375C42.7431 18.9584 42.2569 18.75 41.6667 18.75C41.0764 18.75 40.5729 18.9584 40.1562 19.375C39.7743 19.757 39.5833 20.2431 39.5833 20.8334C39.5833 21.4237 39.7743 21.9271 40.1562 22.3438C40.5729 22.7257 41.0764 22.9167 41.6667 22.9167ZM43.75 41.6667V29.0625C44.2708 29.2362 44.7569 29.4271 45.2083 29.6355C45.6944 29.8438 46.1806 30.0695 46.6667 30.3125C47.7083 30.8334 48.5243 31.5973 49.1146 32.6042C49.7049 33.6112 50 34.7049 50 35.8855V41.6667H43.75Z" fill="#52026A"/>
</svg>
